# xmcd
#
# Track frame offsets:
#	182
#	15195
#	28797
#	43740
#	63487
#	83637
#	95800
#	109137
#	126725
#	141022
#
# Disc length: 2099 seconds
#
# Revision: 2
# Processed by: cddbd v1.4PL0 Copyright (c) Steve Scherf et al.
# Submitted via: CDmax 1.9
#
DISCID=8708310a
DTITLE=Zacca Creek - Broken Heartland
DYEAR=1993
DGENRE=Country
TTITLE0=Fly Me South
TTITLE1=Broken Heartland
TTITLE2=She Can't Say I Didn't Cry
TTITLE3=Iron In The Fire
TTITLE4=Painted Cave
TTITLE5=Wild One
TTITLE6=Two Wheel Pony
TTITLE7=I See Forever In Your Eyes
TTITLE8='49 Studebaker
TTITLE9=Maverick Saloon
EXTD=
EXTT0=
EXTT1=
EXTT2=
EXTT3=
EXTT4=
EXTT5=
EXTT6=
EXTT7=
EXTT8=
EXTT9=
PLAYORDER=
